<svg width="103" height="27" viewBox="0 0 103 27" fill="none" xmlns="http://www.w3.org/2000/svg">
<path d="M4.572 4.4H0.432V0.799998H12.672V4.4H8.532V26H4.572V4.4ZM20.3493 26.36C18.4293 26.36 16.9653 25.82 15.9573 24.74C14.9493 23.636 14.4453 22.064 14.4453 20.024V0.799998H18.4053V20.312C18.4053 21.176 18.5733 21.8 18.9093 22.184C19.2693 22.568 19.7733 22.76 20.4213 22.76C21.0693 22.76 21.5613 22.568 21.8973 22.184C22.2573 21.8 22.4373 21.176 22.4373 20.312V0.799998H26.2533V20.024C26.2533 22.064 25.7493 23.636 24.7413 24.74C23.7333 25.82 22.2693 26.36 20.3493 26.36ZM32.1697 4.4H28.0297V0.799998H40.2697V4.4H36.1297V26H32.1697V4.4ZM47.7703 26.36C45.8263 26.36 44.3383 25.808 43.3063 24.704C42.2743 23.6 41.7583 22.04 41.7583 20.024V6.776C41.7583 4.76 42.2743 3.2 43.3063 2.096C44.3383 0.991999 45.8263 0.439999 47.7703 0.439999C49.7143 0.439999 51.2023 0.991999 52.2343 2.096C53.2663 3.2 53.7823 4.76 53.7823 6.776V20.024C53.7823 22.04 53.2663 23.6 52.2343 24.704C51.2023 25.808 49.7143 26.36 47.7703 26.36ZM47.7703 22.76C49.1383 22.76 49.8223 21.932 49.8223 20.276V6.524C49.8223 4.868 49.1383 4.04 47.7703 4.04C46.4023 4.04 45.7183 4.868 45.7183 6.524V20.276C45.7183 21.932 46.4023 22.76 47.7703 22.76ZM56.4604 0.799998H62.3284C64.3684 0.799998 65.8564 1.28 66.7924 2.24C67.7284 3.176 68.1964 4.628 68.1964 6.596V8.144C68.1964 10.76 67.3324 12.416 65.6044 13.112V13.184C66.5644 13.472 67.2364 14.06 67.6204 14.948C68.0284 15.836 68.2324 17.024 68.2324 18.512V22.94C68.2324 23.66 68.2564 24.248 68.3044 24.704C68.3524 25.136 68.4724 25.568 68.6644 26H64.6324C64.4884 25.592 64.3924 25.208 64.3444 24.848C64.2964 24.488 64.2724 23.84 64.2724 22.904V18.296C64.2724 17.144 64.0804 16.34 63.6964 15.884C63.3364 15.428 62.7004 15.2 61.7884 15.2H60.4204V26H56.4604V0.799998ZM61.8604 11.6C62.6524 11.6 63.2404 11.396 63.6244 10.988C64.0324 10.58 64.2364 9.896 64.2364 8.936V6.992C64.2364 6.08 64.0684 5.42 63.7324 5.012C63.4204 4.604 62.9164 4.4 62.2204 4.4H60.4204V11.6H61.8604ZM70.9799 0.799998H74.9399V26H70.9799V0.799998ZM77.9057 0.799998H88.3817V4.4H81.8657V11.42H86.9777V15.02H81.8657V26H77.9057V0.799998ZM93.9167 15.272L89.1287 0.799998H93.3407L96.0407 10.052H96.1127L98.8127 0.799998H102.665L97.8767 15.272V26H93.9167V15.272Z" fill="#4F4F4F"/>
</svg>
